<svg width="81" height="80" viewBox="0 0 81 80" fill="none" xmlns="http://www.w3.org/2000/svg">
<path d="M33.1418 68.2661L22.9634 70.5397L26.8424 75.6817L37.0382 74.4592L33.1418 68.2661ZM32.0634 27.6356L5.88621 40.1146L11.7396 44.7152L32.0634 43.1871V27.6356ZM32.0634 47.409L11.2916 48.9709V48.9665C10.8363 49.0014 10.3667 48.8694 9.97114 48.5583L0.888704 41.4211C-0.379211 40.4791 -0.294752 38.4457 1.16989 37.7471L32.0634 23.0198V12.2599C32.0634 3.72558 39.6698 0.19354 39.6915 0.182625C40.1879 -0.0509526 40.7729 -0.0705993 41.3085 0.182625C41.3302 0.19354 48.9366 3.72558 48.9366 12.2599V23.0198L79.8301 37.7471C81.2948 38.4457 81.3792 40.4791 80.1113 41.4211L71.0289 48.5583C70.6333 48.8694 70.1637 49.0014 69.7084 48.9665V48.9709L48.9366 47.409V64.2091L61.9969 67.1255C63.3977 67.4366 64.1547 69.2507 63.0506 70.6106L56.5627 79.2115C56.1239 79.7944 55.4513 80.0629 54.7993 79.9876L54.7983 79.9941L40.5 78.2805L26.2017 79.9941L26.2007 79.9876C25.5487 80.0629 24.8761 79.7944 24.4373 79.2115L17.9494 70.6106C16.8453 69.2507 17.6034 67.4355 19.0031 67.1255L32.0634 64.2091V47.409ZM44.9578 65.2766V12.2599C44.9578 7.89396 41.976 5.43376 40.5 4.48307C39.024 5.43376 36.0422 7.89396 36.0422 12.2599V65.2766L40.5 72.3614L44.9578 65.2766ZM48.9366 27.6356V43.1871L69.2604 44.7152L75.1138 40.1146L48.9366 27.6356ZM58.0366 70.5397L47.8582 68.2661L43.9618 74.4592L54.1576 75.6817L58.0366 70.5397Z" fill="#454F9A"/>
</svg>
