<svg width="81" height="80" viewBox="0 0 81 80" fill="none" xmlns="http://www.w3.org/2000/svg">
<path d="M40.5 0C18.1218 0 0 17.8981 0 40C0 62.1019 18.1863 80 40.5 80C62.8137 80 81 62.0382 81 40C81 17.9618 62.8782 0 40.5 0ZM40.5 4.84076C49.2707 4.84076 57.2675 7.96178 63.4586 13.1847L53.6561 22.8025C49.9801 20.0637 45.4013 18.4076 40.5 18.4076C35.5987 18.4076 30.9554 20.0637 27.3439 22.8025L17.5414 13.1847C23.7325 8.02548 31.7293 4.84076 40.5 4.84076ZM57.3965 40C57.3965 49.172 49.8511 56.6879 40.5 56.6879C31.1489 56.6879 23.6035 49.172 23.6035 40C23.6035 30.828 31.2134 23.3121 40.5 23.3121C49.7866 23.3121 57.3965 30.828 57.3965 40ZM4.90127 40C4.90127 31.0191 8.31927 22.8025 13.9944 16.6242L23.7325 26.242C20.5725 30 18.7022 34.7771 18.7022 40C18.7022 44.9045 20.379 49.4268 23.1521 52.9936L13.3495 62.6752C8.1258 56.5605 4.90127 48.6624 4.90127 40ZM40.5 75.1592C31.4068 75.1592 23.0876 71.7834 16.832 66.1783L26.5701 56.5605C30.375 59.6815 35.2118 61.5287 40.5 61.5287C45.7882 61.5287 50.6895 59.6815 54.4299 56.5605L64.168 66.1783C57.9124 71.7197 49.5932 75.1592 40.5 75.1592ZM67.6505 62.6752L57.9124 52.9936C60.6855 49.3631 62.3623 44.8408 62.3623 40C62.3623 34.7771 60.492 29.9363 57.332 26.242L67.0701 16.6242C72.6807 22.8662 76.1632 31.0191 76.1632 40C76.0987 48.6624 72.8742 56.5605 67.6505 62.6752Z" fill="#454F9A"/>
</svg>
