<svg width="39" height="40" viewBox="0 0 39 40" fill="none" xmlns="http://www.w3.org/2000/svg">
<path d="M14.625 7C19.175 7 22.75 10.575 22.75 15.125C22.75 19.675 19.175 23.25 14.625 23.25C10.075 23.25 6.5 19.675 6.5 15.125C6.5 10.575 10.075 7 14.625 7ZM14.625 3.75C8.2875 3.75 3.25 8.7875 3.25 15.125C3.25 21.4625 8.2875 26.5 14.625 26.5C20.9625 26.5 26 21.4625 26 15.125C26 8.7875 20.9625 3.75 14.625 3.75Z" fill="#EFEDFF"/>
<path d="M35.75 33.4875L32.9875 36.25L22.75 26.0125V23.25H25.5125L35.75 33.4875Z" fill="#EFEDFF"/>
<path d="M22.0056 21.1792L20.6267 22.558L24.7632 26.6946L26.1421 25.3157L22.0056 21.1792Z" fill="#EFEDFF"/>
</svg>
