<svg width="573" height="574" viewBox="0 0 573 574" fill="none" xmlns="http://www.w3.org/2000/svg">
<path d="M44.8945 290.572V55.4043H280.481H516.067V290.572V525.74H280.481H44.8945V290.572Z" fill="#FDFDFD"/>
<path d="M49.5052 572.816C24.078 570.349 8.54849 557.909 1.97747 534.746C0.235512 528.605 0.153809 517.565 0.153809 288.317C0.153809 61.5417 0.251813 47.9351 1.93241 41.3819C4.58829 31.0257 9.39968 22.0805 15.6797 15.8232C22.3308 9.19622 28.5531 5.70213 39.1839 2.62452L47.1538 0.317261H286.654C515.311 0.317261 526.444 0.399722 532.574 2.1387C556.473 8.91925 568.538 24.1531 571.631 51.4565C572.431 58.519 572.664 127.437 572.451 294.317L572.153 527.317L569.969 534.971C566.917 545.665 563.295 552.317 557.303 558.234C551.011 564.445 544.274 568.158 533.978 571.087L526.154 573.313L291.654 573.435C162.679 573.503 53.7119 573.224 49.5052 572.816ZM423.394 494.577C435.712 482.272 442.65 474.612 442.643 473.327C442.637 472.222 429.137 419.153 412.643 355.396C396.149 291.64 382.654 238.549 382.654 237.416C382.654 236.031 400.928 217.043 438.551 179.337C500.606 117.146 500.021 117.846 499.997 105.817C499.982 97.9588 498.179 93.4277 492.707 87.4909C486.789 81.0704 480.135 78.457 471.194 79.0411C466.649 79.3381 462.559 80.3011 459.654 81.7579C456.5 83.3398 438.508 100.627 399.499 139.559L343.844 195.103L222.127 162.835L100.41 130.567L80.2821 150.739C62.5353 168.524 60.3512 171.059 61.8218 172.164C62.7392 172.854 107.398 196.57 161.064 224.868C214.729 253.165 258.641 276.769 258.646 277.322C258.65 277.875 240.709 296.267 218.777 318.194L178.901 358.061L147.703 354.275L116.505 350.489L100.591 366.38C88.2026 378.75 84.952 382.527 85.9158 383.429C86.5967 384.067 102.004 392.34 120.154 401.814C138.304 411.288 153.915 419.777 154.846 420.679C155.776 421.58 164.431 437.361 174.077 455.749C183.724 474.136 192.085 489.649 192.658 490.222C193.381 490.944 198.582 486.366 209.622 475.29L225.544 459.317L222.104 430.817C220.213 415.142 218.662 400.98 218.659 399.347C218.655 396.768 223.828 391.196 257.887 357.097C279.465 335.493 297.813 317.817 298.661 317.817C299.693 317.817 316.999 350.199 351.037 415.817C378.996 469.717 402.38 513.817 403.003 513.817C403.626 513.817 412.802 505.159 423.394 494.577Z" fill="#002366"/>
</svg>
