<svg width="80" height="80" viewBox="0 0 80 80" fill="none" xmlns="http://www.w3.org/2000/svg">
<path d="M40 0C17.9086 0 0 17.9086 0 40C0 62.0914 17.9086 80 40 80C62.0914 80 80 62.0914 80 40C80 17.9086 62.0914 0 40 0ZM60.2531 36.3097C56.0056 36.3097 51.8728 34.9313 48.6906 32.5988L48.6653 48.4581C48.6627 51.3968 47.7639 54.2648 46.0889 56.6793C44.4139 59.0939 42.0424 60.9403 39.2908 61.972C36.5392 63.0037 33.5384 63.1717 30.6888 62.4536C27.8392 61.7355 25.2764 60.1655 23.3423 57.953C21.4082 55.7404 20.1949 52.9907 19.8643 50.0707C19.5336 47.1507 20.1013 44.1993 21.4916 41.6103C22.882 39.0214 25.0288 36.918 27.6456 35.5808C30.2625 34.2437 33.2249 33.7364 36.1375 34.1267V41.915C34.7636 41.5091 33.2967 41.5461 31.9449 42.0207C30.5932 42.4953 29.4252 43.3835 28.6066 44.5593C27.788 45.735 27.3604 47.1387 27.3844 48.5711C27.4084 50.0036 27.8828 51.3921 28.7403 52.5398C29.5978 53.6875 30.7949 54.5361 32.1617 54.9651C33.5286 55.3942 34.9959 55.3821 36.3555 54.9304C37.7151 54.4787 38.8979 53.6104 39.7363 52.4487C40.5747 51.287 41.026 49.8908 41.0262 48.4581V17.0833H49.038C49.038 18.556 49.328 20.0143 49.8916 21.3749C50.4552 22.7356 51.2813 23.9718 52.3227 25.0132C53.3641 26.0546 54.6004 26.8806 55.961 27.4442C57.3216 28.0078 58.7799 28.2978 60.2527 28.2978L60.2531 36.3097Z" fill="#EFEDFF"/>
</svg>
