<svg width="80" height="80" viewBox="0 0 80 80" fill="none" xmlns="http://www.w3.org/2000/svg">
<path d="M40.0016 0C17.9094 0 0 17.9126 0 40.0016C0 62.0939 17.9094 80 40.0016 80C62.0939 80 80 62.0939 80 40.0016C80 17.9126 62.0923 0 40.0016 0ZM60.1511 31.9363C60.1722 32.3684 60.1803 32.8021 60.1803 33.2407C60.1803 46.5627 50.0406 61.9217 31.4993 61.9217C25.8073 61.9217 20.5068 60.2534 16.0461 57.3944C16.8356 57.487 17.6365 57.5341 18.4503 57.5341C23.1741 57.5341 27.5211 55.9227 30.9698 53.2196C26.5595 53.1368 22.8379 50.2209 21.5546 46.2167C22.1686 46.3369 22.8005 46.397 23.4503 46.397C24.3697 46.397 25.2599 46.2768 26.1062 46.0445C21.4929 45.1186 18.0182 41.0413 18.0182 36.1615C18.0182 36.1176 18.0182 36.0754 18.0198 36.0315C19.3778 36.7869 20.9324 37.2401 22.5861 37.2937C19.8798 35.4825 18.101 32.4009 18.101 28.9019C18.101 27.0549 18.5981 25.3216 19.4656 23.8337C24.4379 29.9318 31.8665 33.9457 40.2453 34.3648C40.0731 33.629 39.9838 32.8574 39.9838 32.0679C39.9838 26.5026 44.4964 21.9883 50.065 21.9883C52.9646 21.9883 55.5832 23.2131 57.422 25.1706C59.719 24.7206 61.8762 23.8791 63.8239 22.7242C63.0686 25.0796 61.4717 27.0549 59.3892 28.3008C61.4311 28.0572 63.3739 27.5146 65.1803 26.7138C63.832 28.7394 62.1215 30.5149 60.1511 31.9363Z" fill="#EFEDFF"/>
</svg>
